<svg width="77" height="77" viewBox="0 0 77 77" fill="none" xmlns="http://www.w3.org/2000/svg">
<g filter="url(#filter0_d_88_10366)">
<circle cx="38.5" cy="37.5" r="34" fill="white" stroke="#F5F5F5"/>
</g>
<path d="M49.1997 33.1504H50.6497C52.188 33.1504 53.6632 33.7615 54.7509 34.8492C55.8386 35.9369 56.4497 37.4121 56.4497 38.9504C56.4497 40.4886 55.8386 41.9639 54.7509 43.0516C53.6632 44.1393 52.188 44.7503 50.6497 44.7503H49.1997" stroke="#353535" stroke-width="2" stroke-linecap="round" stroke-linejoin="round"/>
<path d="M26 33.1504H49.1999V46.2003C49.1999 47.7386 48.5888 49.2138 47.5011 50.3015C46.4134 51.3893 44.9382 52.0003 43.3999 52.0003H31.8C30.2617 52.0003 28.7865 51.3893 27.6988 50.3015C26.6111 49.2138 26 47.7386 26 46.2003V33.1504Z" stroke="#353535" stroke-width="2" stroke-linecap="round" stroke-linejoin="round"/>
<path d="M31.7998 23V27.35" stroke="#353535" stroke-width="2" stroke-linecap="round" stroke-linejoin="round"/>
<path d="M37.5996 23V27.35" stroke="#353535" stroke-width="2" stroke-linecap="round" stroke-linejoin="round"/>
<path d="M43.3999 23V27.35" stroke="#353535" stroke-width="2" stroke-linecap="round" stroke-linejoin="round"/>
<defs>
<filter id="filter0_d_88_10366" x="0" y="0" width="77" height="77" filterUnits="userSpaceOnUse" color-interpolation-filters="sRGB">
<feFlood flood-opacity="0" result="BackgroundImageFix"/>
<feColorMatrix in="SourceAlpha" type="matrix" values="0 0 0 0 0 0 0 0 0 0 0 0 0 0 0 0 0 0 127 0" result="hardAlpha"/>
<feOffset dy="1"/>
<feGaussianBlur stdDeviation="2"/>
<feComposite in2="hardAlpha" operator="out"/>
<feColorMatrix type="matrix" values="0 0 0 0 0 0 0 0 0 0 0 0 0 0 0 0 0 0 0.15 0"/>
<feBlend mode="normal" in2="BackgroundImageFix" result="effect1_dropShadow_88_10366"/>
<feBlend mode="normal" in="SourceGraphic" in2="effect1_dropShadow_88_10366" result="shape"/>
</filter>
</defs>
</svg>
