<svg width="77" height="77" viewBox="0 0 77 77" fill="none" xmlns="http://www.w3.org/2000/svg">
<g filter="url(#filter0_d_88_10424)">
<circle cx="38.5" cy="37.5" r="34.5" fill="#353535"/>
</g>
<path d="M33.3104 37.4136H28.6552C28.518 37.4136 28.3864 37.4681 28.2894 37.5651C28.1924 37.6621 28.1379 37.7936 28.1379 37.9308V41.0343C28.1379 41.1714 28.1924 41.303 28.2894 41.4C28.3864 41.497 28.518 41.5515 28.6552 41.5515H33.3104C33.4475 41.5515 33.5791 41.497 33.6761 41.4C33.7731 41.303 33.8276 41.1714 33.8276 41.0343V37.9308C33.8276 37.7936 33.7731 37.6621 33.6761 37.5651C33.5791 37.4681 33.4475 37.4136 33.3104 37.4136ZM32.7931 40.517H29.1724V38.4481H32.7931V40.517Z" fill="white"/>
<path d="M49.3448 37.4136H44.6896C44.5524 37.4136 44.4209 37.4681 44.3239 37.5651C44.2269 37.6621 44.1724 37.7936 44.1724 37.9308V41.0343C44.1724 41.1714 44.2269 41.303 44.3239 41.4C44.4209 41.497 44.5524 41.5515 44.6896 41.5515H49.3448C49.482 41.5515 49.6135 41.497 49.7105 41.4C49.8075 41.303 49.862 41.1714 49.862 41.0343V37.9308C49.862 37.7936 49.8075 37.6621 49.7105 37.5651C49.6135 37.4681 49.482 37.4136 49.3448 37.4136ZM48.8275 40.517H45.2068V38.4481H48.8275V40.517Z" fill="white"/>
<path d="M29.6897 30.1724C29.3828 30.1724 29.0828 30.2634 28.8276 30.4339C28.5724 30.6044 28.3735 30.8467 28.2561 31.1303C28.1386 31.4138 28.1079 31.7258 28.1678 32.0268C28.2276 32.3278 28.3754 32.6043 28.5924 32.8213C28.8094 33.0383 29.0859 33.1861 29.3869 33.246C29.6879 33.3059 29.9999 33.2751 30.2835 33.1577C30.567 33.0402 30.8094 32.8414 30.9799 32.5862C31.1504 32.331 31.2414 32.031 31.2414 31.7241C31.2414 31.3125 31.0779 30.9179 30.7869 30.6269C30.4959 30.3358 30.1012 30.1724 29.6897 30.1724ZM29.6897 32.2413C29.5874 32.2413 29.4874 32.211 29.4023 32.1542C29.3172 32.0973 29.2509 32.0165 29.2118 31.922C29.1726 31.8275 29.1624 31.7235 29.1824 31.6232C29.2023 31.5228 29.2516 31.4307 29.3239 31.3583C29.3963 31.286 29.4884 31.2367 29.5888 31.2168C29.6891 31.1968 29.7931 31.2071 29.8876 31.2462C29.9821 31.2854 30.0629 31.3517 30.1197 31.4367C30.1766 31.5218 30.2069 31.6218 30.2069 31.7241C30.2069 31.8613 30.1524 31.9928 30.0554 32.0898C29.9584 32.1868 29.8268 32.2413 29.6897 32.2413Z" fill="white"/>
<path d="M34.3449 30.1724C34.038 30.1724 33.738 30.2634 33.4828 30.4339C33.2277 30.6044 33.0288 30.8467 32.9113 31.1303C32.7939 31.4138 32.7632 31.7258 32.823 32.0268C32.8829 32.3278 33.0307 32.6043 33.2477 32.8213C33.4647 33.0383 33.7412 33.1861 34.0422 33.246C34.3432 33.3059 34.6552 33.2751 34.9388 33.1577C35.2223 33.0402 35.4646 32.8414 35.6351 32.5862C35.8057 32.331 35.8967 32.031 35.8967 31.7241C35.8967 31.3125 35.7332 30.9179 35.4422 30.6269C35.1512 30.3358 34.7565 30.1724 34.3449 30.1724ZM34.3449 32.2413C34.2426 32.2413 34.1426 32.211 34.0576 32.1542C33.9725 32.0973 33.9062 32.0165 33.8671 31.922C33.8279 31.8275 33.8177 31.7235 33.8376 31.6232C33.8576 31.5228 33.9069 31.4307 33.9792 31.3583C34.0515 31.286 34.1437 31.2367 34.244 31.2168C34.3444 31.1968 34.4484 31.2071 34.5429 31.2462C34.6374 31.2854 34.7182 31.3517 34.775 31.4367C34.8318 31.5218 34.8622 31.6218 34.8622 31.7241C34.8622 31.8613 34.8077 31.9928 34.7107 32.0898C34.6137 32.1868 34.4821 32.2413 34.3449 32.2413Z" fill="white"/>
<path d="M39 30.1724C38.6931 30.1724 38.3931 30.2634 38.1379 30.4339C37.8827 30.6044 37.6838 30.8467 37.5664 31.1303C37.4489 31.4138 37.4182 31.7258 37.4781 32.0268C37.5379 32.3278 37.6857 32.6043 37.9027 32.8213C38.1197 33.0383 38.3962 33.1861 38.6972 33.246C38.9982 33.3059 39.3102 33.2751 39.5938 33.1577C39.8773 33.0402 40.1197 32.8414 40.2902 32.5862C40.4607 32.331 40.5517 32.031 40.5517 31.7241C40.5517 31.3125 40.3882 30.9179 40.0972 30.6269C39.8062 30.3358 39.4115 30.1724 39 30.1724ZM39 32.2413C38.8977 32.2413 38.7977 32.211 38.7126 32.1542C38.6275 32.0973 38.5612 32.0165 38.5221 31.922C38.4829 31.8275 38.4727 31.7235 38.4927 31.6232C38.5126 31.5228 38.5619 31.4307 38.6342 31.3583C38.7066 31.286 38.7987 31.2367 38.8991 31.2168C38.9994 31.1968 39.1034 31.2071 39.1979 31.2462C39.2924 31.2854 39.3732 31.3517 39.43 31.4367C39.4869 31.5218 39.5172 31.6218 39.5172 31.7241C39.5172 31.8613 39.4627 31.9928 39.3657 32.0898C39.2687 32.1868 39.1371 32.2413 39 32.2413Z" fill="white"/>
<path d="M48.3103 30.1724C48.0034 30.1724 47.7034 30.2634 47.4482 30.4339C47.193 30.6044 46.9941 30.8467 46.8767 31.1303C46.7592 31.4138 46.7285 31.7258 46.7884 32.0268C46.8482 32.3278 46.996 32.6043 47.213 32.8213C47.43 33.0383 47.7065 33.1861 48.0075 33.246C48.3085 33.3059 48.6205 33.2751 48.9041 33.1577C49.1876 33.0402 49.43 32.8414 49.6005 32.5862C49.771 32.331 49.862 32.031 49.862 31.7241C49.862 31.3125 49.6985 30.9179 49.4075 30.6269C49.1165 30.3358 48.7218 30.1724 48.3103 30.1724ZM48.3103 32.2413C48.208 32.2413 48.108 32.211 48.0229 32.1542C47.9378 32.0973 47.8716 32.0165 47.8324 31.922C47.7933 31.8275 47.783 31.7235 47.803 31.6232C47.8229 31.5228 47.8722 31.4307 47.9445 31.3583C48.0169 31.286 48.109 31.2367 48.2094 31.2168C48.3097 31.1968 48.4137 31.2071 48.5082 31.2462C48.6027 31.2854 48.6835 31.3517 48.7403 31.4367C48.7972 31.5218 48.8275 31.6218 48.8275 31.7241C48.8275 31.8613 48.773 31.9928 48.676 32.0898C48.579 32.1868 48.4475 32.2413 48.3103 32.2413Z" fill="white"/>
<path d="M43.6552 30.1724C43.3483 30.1724 43.0483 30.2634 42.7931 30.4339C42.538 30.6044 42.3391 30.8467 42.2216 31.1303C42.1042 31.4138 42.0735 31.7258 42.1333 32.0268C42.1932 32.3278 42.341 32.6043 42.558 32.8213C42.775 33.0383 43.0515 33.1861 43.3525 33.246C43.6535 33.3059 43.9655 33.2751 44.2491 33.1577C44.5326 33.0402 44.7749 32.8414 44.9455 32.5862C45.116 32.331 45.207 32.031 45.207 31.7241C45.207 31.3125 45.0435 30.9179 44.7525 30.6269C44.4615 30.3358 44.0668 30.1724 43.6552 30.1724ZM43.6552 32.2413C43.5529 32.2413 43.4529 32.211 43.3679 32.1542C43.2828 32.0973 43.2165 32.0165 43.1774 31.922C43.1382 31.8275 43.128 31.7235 43.1479 31.6232C43.1679 31.5228 43.2172 31.4307 43.2895 31.3583C43.3618 31.286 43.454 31.2367 43.5543 31.2168C43.6547 31.1968 43.7587 31.2071 43.8532 31.2462C43.9477 31.2854 44.0285 31.3517 44.0853 31.4367C44.1421 31.5218 44.1725 31.6218 44.1725 31.7241C44.1725 31.8613 44.118 31.9928 44.021 32.0898C43.924 32.1868 43.7924 32.2413 43.6552 32.2413Z" fill="white"/>
<path d="M53.4828 49.8276H51.931V37.6724V25.5172C51.931 25.3801 51.8765 25.2485 51.7795 25.1515C51.6825 25.0545 51.551 25 51.4138 25H26.5862C26.449 25 26.3175 25.0545 26.2205 25.1515C26.1235 25.2485 26.069 25.3801 26.069 25.5172V49.8276H24.5172C24.3801 49.8276 24.2485 49.8821 24.1515 49.9791C24.0545 50.0761 24 50.2076 24 50.3448C24 50.482 24.0545 50.6136 24.1515 50.7106C24.2485 50.8076 24.3801 50.8621 24.5172 50.8621H53.4828C53.6199 50.8621 53.7515 50.8076 53.8485 50.7106C53.9455 50.6136 54 50.482 54 50.3448C54 50.2076 53.9455 50.0761 53.8485 49.9791C53.7515 49.8821 53.6199 49.8276 53.4828 49.8276ZM35.3793 45.1724C35.3793 44.2121 35.7608 43.2912 36.4398 42.6122C37.1188 41.9332 38.0397 41.5517 39 41.5517C39.9603 41.5517 40.8812 41.9332 41.5602 42.6122C42.2392 43.2912 42.6207 44.2121 42.6207 45.1724V49.8276H35.3793V45.1724ZM39 40.5172C37.9456 40.5178 36.9226 40.8763 36.0986 41.5341C35.2745 42.1919 34.6981 43.1099 34.4638 44.1379H27.1034V35.3448H50.8966V44.1379H43.5362C43.3019 43.1099 42.7255 42.1919 41.9014 41.5341C41.0774 40.8763 40.0544 40.5178 39 40.5172ZM27.1034 29.1379H39H50.8966V34.3103H27.1034V29.1379ZM50.8966 26.0345V28.1034H27.1034V26.0345H50.8966ZM27.1034 49.8276V45.1724H34.3448V49.8276H27.1034ZM43.6552 49.8276V45.1724H50.8966V49.8276H43.6552Z" fill="white" stroke="white"/>
<defs>
<filter id="filter0_d_88_10424" x="0" y="0" width="77" height="77" filterUnits="userSpaceOnUse" color-interpolation-filters="sRGB">
<feFlood flood-opacity="0" result="BackgroundImageFix"/>
<feColorMatrix in="SourceAlpha" type="matrix" values="0 0 0 0 0 0 0 0 0 0 0 0 0 0 0 0 0 0 127 0" result="hardAlpha"/>
<feOffset dy="1"/>
<feGaussianBlur stdDeviation="2"/>
<feComposite in2="hardAlpha" operator="out"/>
<feColorMatrix type="matrix" values="0 0 0 0 0 0 0 0 0 0 0 0 0 0 0 0 0 0 0.15 0"/>
<feBlend mode="normal" in2="BackgroundImageFix" result="effect1_dropShadow_88_10424"/>
<feBlend mode="normal" in="SourceGraphic" in2="effect1_dropShadow_88_10424" result="shape"/>
</filter>
</defs>
</svg>
