<svg width="77" height="77" viewBox="0 0 77 77" fill="none" xmlns="http://www.w3.org/2000/svg">
<g filter="url(#filter0_d_88_10345)">
<circle cx="38.5" cy="37.5" r="34" fill="white" stroke="#F5F5F5"/>
<path d="M38.9998 48C38.7698 48 38.5388 47.921 38.3518 47.762C38.1098 47.556 32.4098 42.662 30.0318 37.324C29.8068 36.82 30.0338 36.228 30.5388 36.004C31.0418 35.78 31.6338 36.006 31.8588 36.511C33.5978 40.416 37.4358 44.21 38.9828 45.641C41.7128 42.991 46.9998 37.069 46.9998 33.23C46.9998 28.692 43.4108 25 38.9998 25C34.5888 25 30.9998 28.692 30.9998 33.23C30.9998 33.782 30.5518 34.23 29.9998 34.23C29.4478 34.23 28.9998 33.782 28.9998 33.23C28.9998 27.589 33.4858 23 38.9998 23C44.5138 23 48.9998 27.589 48.9998 33.23C48.9998 39.142 40.0558 47.389 39.6748 47.738C39.4838 47.912 39.2418 48 38.9998 48Z" fill="#353535"/>
<path d="M38.9998 37C36.7938 37 34.9998 35.206 34.9998 33C34.9998 30.794 36.7938 29 38.9998 29C41.2058 29 42.9998 30.794 42.9998 33C42.9998 35.206 41.2058 37 38.9998 37ZM38.9998 31C37.8968 31 36.9998 31.897 36.9998 33C36.9998 34.103 37.8968 35 38.9998 35C40.1028 35 40.9998 34.103 40.9998 33C40.9998 31.897 40.1028 31 38.9998 31Z" fill="#353535"/>
<path d="M51.9998 51.0002H25.9998C25.6438 51.0002 25.3138 50.8112 25.1348 50.5022C24.9558 50.1932 24.9548 49.8142 25.1318 49.5042L29.1318 42.5042C29.4058 42.0252 30.0168 41.8572 30.4958 42.1322C30.9748 42.4062 31.1418 43.0172 30.8678 43.4962L27.7228 49.0002H50.2758L47.1308 43.4962C46.8568 43.0172 47.0238 42.4062 47.5028 42.1322C47.9818 41.8562 48.5928 42.0252 48.8668 42.5042L52.8668 49.5042C53.0438 49.8142 53.0428 50.1932 52.8638 50.5022C52.6858 50.8112 52.3558 51.0002 51.9998 51.0002Z" fill="#353535"/>
</g>
<defs>
<filter id="filter0_d_88_10345" x="0" y="0" width="77" height="77" filterUnits="userSpaceOnUse" color-interpolation-filters="sRGB">
<feFlood flood-opacity="0" result="BackgroundImageFix"/>
<feColorMatrix in="SourceAlpha" type="matrix" values="0 0 0 0 0 0 0 0 0 0 0 0 0 0 0 0 0 0 127 0" result="hardAlpha"/>
<feOffset dy="1"/>
<feGaussianBlur stdDeviation="2"/>
<feComposite in2="hardAlpha" operator="out"/>
<feColorMatrix type="matrix" values="0 0 0 0 0 0 0 0 0 0 0 0 0 0 0 0 0 0 0.15 0"/>
<feBlend mode="normal" in2="BackgroundImageFix" result="effect1_dropShadow_88_10345"/>
<feBlend mode="normal" in="SourceGraphic" in2="effect1_dropShadow_88_10345" result="shape"/>
</filter>
</defs>
</svg>
