<svg width="18" height="16" viewBox="0 0 18 16" fill="none" xmlns="http://www.w3.org/2000/svg">
<path d="M1.5 15.4998C1.41801 15.5019 1.33667 15.4848 1.2625 15.4498C1.14836 15.4029 1.05066 15.3233 0.981701 15.221C0.912742 15.1187 0.875616 14.9982 0.875 14.8748V3.48731C0.883927 3.08593 0.971851 2.69024 1.13375 2.32285C1.29565 1.95545 1.52834 1.62356 1.81855 1.34612C2.10875 1.06869 2.45077 0.851151 2.82508 0.705938C3.19938 0.560725 3.59862 0.490683 4 0.499814H14C14.4014 0.490683 14.8006 0.560725 15.1749 0.705938C15.5492 0.851151 15.8912 1.06869 16.1815 1.34612C16.4717 1.62356 16.7044 1.95545 16.8663 2.32285C17.0281 2.69024 17.1161 3.08593 17.125 3.48731V9.38731C17.1161 9.7887 17.0281 10.1844 16.8663 10.5518C16.7044 10.9192 16.4717 11.2511 16.1815 11.5285C15.8912 11.8059 15.5492 12.0235 15.1749 12.1687C14.8006 12.3139 14.4014 12.3839 14 12.3748H4.88125L1.94375 15.3186C1.88535 15.3765 1.81609 15.4223 1.73994 15.4534C1.66379 15.4845 1.58225 15.5003 1.5 15.4998ZM4 1.74981C3.5213 1.7329 3.05537 1.90616 2.70404 2.23173C2.3527 2.55731 2.14452 3.00872 2.125 3.48731V13.3686L4.18125 11.3061C4.23965 11.2481 4.30891 11.2023 4.38506 11.1712C4.46121 11.1401 4.54275 11.1243 4.625 11.1248H14C14.4787 11.1417 14.9446 10.9685 15.296 10.6429C15.6473 10.3173 15.8555 9.86591 15.875 9.38731V3.48731C15.8555 3.00872 15.6473 2.55731 15.296 2.23173C14.9446 1.90616 14.4787 1.7329 14 1.74981H4Z" fill="#A4A4A4"/>
<path d="M9 7.375C9.51777 7.375 9.9375 6.95527 9.9375 6.4375C9.9375 5.91973 9.51777 5.5 9 5.5C8.48223 5.5 8.0625 5.91973 8.0625 6.4375C8.0625 6.95527 8.48223 7.375 9 7.375Z" fill="#A4A4A4"/>
<path d="M12.4375 7.375C12.9553 7.375 13.375 6.95527 13.375 6.4375C13.375 5.91973 12.9553 5.5 12.4375 5.5C11.9197 5.5 11.5 5.91973 11.5 6.4375C11.5 6.95527 11.9197 7.375 12.4375 7.375Z" fill="#A4A4A4"/>
<path d="M5.5625 7.375C6.08027 7.375 6.5 6.95527 6.5 6.4375C6.5 5.91973 6.08027 5.5 5.5625 5.5C5.04473 5.5 4.625 5.91973 4.625 6.4375C4.625 6.95527 5.04473 7.375 5.5625 7.375Z" fill="#A4A4A4"/>
</svg>
