<svg width="84" height="60" viewBox="0 0 84 60" fill="none" xmlns="http://www.w3.org/2000/svg">
<rect width="84" height="60" fill="white"/>
<path d="M36.5712 50.74V41.78H35.7512V50.74H36.5712ZM32.4312 44.51V43.37H34.5412V42.69H29.5312V43.37H31.6112V44.51C31.6112 46.06 30.5212 47.74 29.2312 48.36L29.7112 49.02C30.7112 48.52 31.6212 47.36 32.0212 46.06C32.4512 47.29 33.3312 48.32 34.3712 48.8L34.8312 48.14C33.5112 47.58 32.4312 46.03 32.4312 44.51ZM45.8204 47.06V41.77L44.9904 41.78V43.09H42.7304C42.3004 42.58 41.6704 42.27 40.8704 42.27C39.5504 42.27 38.5704 43.17 38.5704 44.42C38.5704 45.69 39.5504 46.59 40.8704 46.59C41.6704 46.59 42.2904 46.28 42.7204 45.77H44.9904V47.06H45.8204ZM40.8704 45.89C40.0004 45.89 39.3504 45.27 39.3504 44.42C39.3504 43.58 40.0004 42.97 40.8704 42.97C41.7504 42.97 42.4004 43.58 42.4004 44.42C42.4004 45.27 41.7504 45.89 40.8704 45.89ZM44.9904 43.75V45.1H43.0804C43.1504 44.91 43.1804 44.68 43.1804 44.42C43.1804 44.17 43.1504 43.94 43.0804 43.75H44.9904ZM45.8204 47.55H39.8204V48.22H44.9904V50.75H45.8204V47.55ZM48.0796 46.1H52.1196V45.32H54.1896V46.46H55.0096V41.78H54.1896V43.05H52.1196V42.2H51.3096V43.47H48.8896V42.19H48.0796V46.1ZM52.1196 44.68V43.69H54.1896V44.68H52.1196ZM48.8896 44.11H51.3096V45.44H48.8896V44.11ZM55.3496 50.62V49.97H50.0596V49.02H55.0096V46.89H49.2296V47.54H54.1996V48.4H49.2496V50.62H55.3496Z" fill="#767676"/>
<path d="M42 35.0002C41.6868 34.9974 41.3775 34.9293 41.0922 34.8002C40.8068 34.6711 40.5515 34.4837 40.3427 34.2503C37.6054 31.2506 33.0009 25.5436 33.0009 21.7715C32.9668 19.3495 33.8954 17.013 35.5827 15.2751C37.27 13.5372 39.578 12.54 42 12.5024C44.422 12.54 46.73 13.5372 48.4173 15.2751C50.1046 17.013 51.0332 19.3495 50.9991 21.7715C50.9991 25.5211 46.3946 31.2131 43.6573 34.2578C43.4478 34.4899 43.1923 34.6758 42.9069 34.8036C42.6215 34.9314 42.3127 34.9984 42 35.0002ZM42 14.0023C39.9765 14.0417 38.051 14.8815 36.6454 16.3377C35.2398 17.7939 34.4686 19.7478 34.5008 21.7715C34.5008 24.1263 37.103 28.4158 41.4601 33.2529C41.53 33.3254 41.6139 33.3832 41.7067 33.4226C41.7994 33.462 41.8992 33.4824 42 33.4824C42.1008 33.4824 42.2006 33.462 42.2933 33.4226C42.3861 33.3832 42.47 33.3254 42.5399 33.2529C46.897 28.4158 49.4992 24.1263 49.4992 21.7715C49.5314 19.7478 48.7602 17.7939 47.3546 16.3377C45.949 14.8815 44.0235 14.0417 42 14.0023V14.0023Z" fill="#767676" stroke="#767676" stroke-width="0.3"/>
<path d="M42 26.001C41.1101 26.001 40.2402 25.7372 39.5002 25.2427C38.7603 24.7483 38.1836 24.0456 37.843 23.2234C37.5024 22.4012 37.4133 21.4965 37.5869 20.6237C37.7606 19.7509 38.1891 18.9491 38.8184 18.3198C39.4477 17.6906 40.2494 17.262 41.1222 17.0884C41.995 16.9148 42.8998 17.0039 43.7219 17.3445C44.5441 17.685 45.2469 18.2617 45.7413 19.0017C46.2357 19.7416 46.4996 20.6116 46.4996 21.5015C46.4996 22.6949 46.0255 23.8393 45.1817 24.6832C44.3379 25.527 43.1934 26.001 42 26.001ZM42 18.5018C41.4068 18.5018 40.8268 18.6777 40.3335 19.0073C39.8402 19.337 39.4557 19.8054 39.2287 20.3536C39.0016 20.9017 38.9422 21.5048 39.058 22.0867C39.1737 22.6686 39.4594 23.2031 39.8789 23.6226C40.2984 24.0421 40.8329 24.3278 41.4148 24.4436C41.9967 24.5593 42.5998 24.4999 43.148 24.2729C43.6961 24.0458 44.1646 23.6613 44.4942 23.168C44.8238 22.6747 44.9997 22.0948 44.9997 21.5015C44.9997 20.7059 44.6837 19.9429 44.1211 19.3804C43.5586 18.8178 42.7956 18.5018 42 18.5018Z" fill="#767676" stroke="#767676" stroke-width="0.3"/>
</svg>
