<svg width="84" height="60" viewBox="0 0 84 60" fill="none" xmlns="http://www.w3.org/2000/svg">
<rect width="84" height="60" fill="white"/>
<path d="M36.5712 50.74V41.78H35.7512V50.74H36.5712ZM32.4312 44.51V43.37H34.5412V42.69H29.5312V43.37H31.6112V44.51C31.6112 46.06 30.5212 47.74 29.2312 48.36L29.7112 49.02C30.7112 48.52 31.6212 47.36 32.0212 46.06C32.4512 47.29 33.3312 48.32 34.3712 48.8L34.8312 48.14C33.5112 47.58 32.4312 46.03 32.4312 44.51ZM45.8204 47.06V41.77L44.9904 41.78V43.09H42.7304C42.3004 42.58 41.6704 42.27 40.8704 42.27C39.5504 42.27 38.5704 43.17 38.5704 44.42C38.5704 45.69 39.5504 46.59 40.8704 46.59C41.6704 46.59 42.2904 46.28 42.7204 45.77H44.9904V47.06H45.8204ZM40.8704 45.89C40.0004 45.89 39.3504 45.27 39.3504 44.42C39.3504 43.58 40.0004 42.97 40.8704 42.97C41.7504 42.97 42.4004 43.58 42.4004 44.42C42.4004 45.27 41.7504 45.89 40.8704 45.89ZM44.9904 43.75V45.1H43.0804C43.1504 44.91 43.1804 44.68 43.1804 44.42C43.1804 44.17 43.1504 43.94 43.0804 43.75H44.9904ZM45.8204 47.55H39.8204V48.22H44.9904V50.75H45.8204V47.55ZM48.0796 46.1H52.1196V45.32H54.1896V46.46H55.0096V41.78H54.1896V43.05H52.1196V42.2H51.3096V43.47H48.8896V42.19H48.0796V46.1ZM52.1196 44.68V43.69H54.1896V44.68H52.1196ZM48.8896 44.11H51.3096V45.44H48.8896V44.11ZM55.3496 50.62V49.97H50.0596V49.02H55.0096V46.89H49.2296V47.54H54.1996V48.4H49.2496V50.62H55.3496Z" fill="#3C70BC"/>
<path d="M42 35.0002C41.6868 34.9974 41.3775 34.9293 41.0922 34.8002C40.8068 34.6711 40.5515 34.4837 40.3427 34.2503C37.6054 31.2506 33.0009 25.5436 33.0009 21.7715C32.9668 19.3495 33.8954 17.013 35.5827 15.2751C37.27 13.5372 39.578 12.54 42 12.5024C44.422 12.54 46.73 13.5372 48.4173 15.2751C50.1046 17.013 51.0332 19.3495 50.9991 21.7715C50.9991 25.5211 46.3946 31.2131 43.6573 34.2578C43.4478 34.4899 43.1923 34.6758 42.9069 34.8036C42.6215 34.9314 42.3127 34.9984 42 35.0002Z" fill="#3C70BC" stroke="#3C70BC"/>
<path d="M39.5002 25.2427C40.2402 25.7372 41.1101 26.001 42 26.001C43.1934 26.001 44.3379 25.527 45.1817 24.6832C46.0255 23.8393 46.4996 22.6949 46.4996 21.5015C46.4996 20.6116 46.2357 19.7416 45.7413 19.0017C45.2469 18.2617 44.5441 17.685 43.7219 17.3445C42.8998 17.0039 41.995 16.9148 41.1222 17.0884C40.2494 17.262 39.4476 17.6906 38.8184 18.3198C38.1891 18.9491 37.7606 19.7509 37.5869 20.6237C37.4133 21.4965 37.5024 22.4012 37.843 23.2234C38.1836 24.0456 38.7603 24.7483 39.5002 25.2427Z" fill="white"/>
</svg>
