<svg width="84" height="60" viewBox="0 0 84 60" fill="none" xmlns="http://www.w3.org/2000/svg">
<rect width="84" height="60" fill="white"/>
<path d="M32.0116 50.74V41.78H31.1916V45.37H29.1216V46.04H31.1916V50.74H32.0116ZM29.1516 42.7H25.1216V43.37H28.3416C28.3016 43.93 28.2216 44.44 28.0516 44.95L24.6616 45.17L24.8116 45.88L27.8016 45.6C27.2416 46.8 26.2716 47.82 24.6316 48.62L25.0916 49.27C28.2516 47.67 29.1516 45.31 29.1516 42.7ZM34.8608 45.75H40.9208V42.26H34.8608V45.75ZM35.6608 42.91H40.1108V45.09H35.6608V42.91ZM39.9008 47.63H41.9608V46.96H33.8208V47.63H35.8908V50.8H36.7108V47.63H39.0808V50.8H39.9008V47.63ZM50.38 50.73V41.77H49.56V50.73H50.38ZM44.41 47.72V42.64H43.59V48.42H44.33C45.77 48.42 47.16 48.32 48.73 48L48.64 47.3C47.15 47.61 45.78 47.72 44.41 47.72ZM59.5892 50.73V41.77H58.7692V50.73H59.5892ZM53.6092 47.91V45.76H56.8192V45.1H53.6092V43.25H57.1492V42.58H52.7992V48.58H53.5092C55.2092 48.58 56.4292 48.52 57.8192 48.28L57.7392 47.61C56.3992 47.85 55.2392 47.91 53.6092 47.91Z" fill="#3C70BC"/>
<path d="M51 23.5C51.0034 24.8199 50.6951 26.1219 50.1 27.3C49.3944 28.7118 48.3098 29.8992 46.9674 30.7293C45.6251 31.5594 44.0782 31.9994 42.5 32C41.1801 32.0035 39.8781 31.6951 38.7 31.1L33 33L34.9 27.3C34.3049 26.1219 33.9966 24.8199 34 23.5C34.0006 21.9218 34.4406 20.3749 35.2707 19.0326C36.1008 17.6903 37.2883 16.6056 38.7 15.9C39.8781 15.305 41.1801 14.9966 42.5 15H43C45.0843 15.115 47.053 15.9948 48.5291 17.4709C50.0052 18.947 50.885 20.9157 51 23V23.5Z" fill="#3C70BC" stroke="#3C70BC" stroke-width="2" stroke-linecap="round" stroke-linejoin="round"/>
</svg>
