<svg width="84" height="60" viewBox="0 0 84 60" fill="none" xmlns="http://www.w3.org/2000/svg">
<rect width="84" height="60" fill="white"/>
<path d="M38.3504 43.15H45.5704V42.51H42.4004V41.65H41.5804V42.51H38.3504V43.15ZM46.0304 47.37V46.72H42.4004V46.04C44.0104 45.97 44.8804 45.54 44.8804 44.77C44.8804 43.93 43.8704 43.5 41.9904 43.5C40.1004 43.5 39.0904 43.93 39.0904 44.77C39.0904 45.54 39.9704 45.97 41.5804 46.04V46.72H37.9304V47.37H46.0304ZM39.9504 44.77C39.9504 44.33 40.6604 44.08 41.9904 44.08C43.2804 44.08 44.0104 44.33 44.0104 44.77C44.0104 45.22 43.2804 45.47 41.9904 45.47C40.6604 45.47 39.9504 45.22 39.9504 44.77ZM45.0504 48.07H38.9304V50.62H45.0504V48.07ZM44.2504 50H39.7304V48.69H44.2504V50Z" fill="#3C70BC"/>
<path d="M33 21L42 14L51 21V32C51 32.5304 50.7893 33.0391 50.4142 33.4142C50.0391 33.7893 49.5304 34 49 34H35C34.4696 34 33.9609 33.7893 33.5858 33.4142C33.2107 33.0391 33 32.5304 33 32V21Z" fill="#3C70BC" stroke="#3C70BC" stroke-width="2" stroke-linecap="round" stroke-linejoin="round"/>
<path d="M39 33V24H45V33" fill="white"/>
</svg>
