<svg width="84" height="60" viewBox="0 0 84 60" fill="none" xmlns="http://www.w3.org/2000/svg">
<rect width="84" height="60" fill="white"/>
<path d="M45.5704 42.51V43.15H38.3504V42.51H41.5804V41.65H42.4004V42.51H45.5704ZM42.4004 46.72H46.0304V47.37H37.9304V46.72H41.5804V46.04C40.7737 46.0067 40.1571 45.8833 39.7304 45.67C39.3037 45.4567 39.0904 45.1567 39.0904 44.77C39.0904 44.35 39.3337 44.0333 39.8204 43.82C40.3137 43.6067 41.0371 43.5 41.9904 43.5C42.9371 43.5 43.6537 43.6067 44.1404 43.82C44.6337 44.0333 44.8804 44.35 44.8804 44.77C44.8804 45.1567 44.6671 45.4567 44.2404 45.67C43.8204 45.8833 43.2071 46.0067 42.4004 46.04V46.72ZM39.9504 44.77C39.9504 44.9967 40.1237 45.17 40.4704 45.29C40.8171 45.41 41.3237 45.47 41.9904 45.47C42.6371 45.47 43.1337 45.41 43.4804 45.29C43.8337 45.17 44.0104 44.9967 44.0104 44.77C44.0104 44.55 43.8337 44.38 43.4804 44.26C43.1337 44.14 42.6371 44.08 41.9904 44.08C41.3237 44.08 40.8171 44.14 40.4704 44.26C40.1237 44.38 39.9504 44.55 39.9504 44.77ZM38.9304 50.62V48.07H45.0504V50.62H38.9304ZM39.7304 48.69V50H44.2504V48.69H39.7304Z" fill="#767676"/>
<path d="M33 21L42 14L51 21V32C51 32.5304 50.7893 33.0391 50.4142 33.4142C50.0391 33.7893 49.5304 34 49 34H35C34.4696 34 33.9609 33.7893 33.5858 33.4142C33.2107 33.0391 33 32.5304 33 32V21Z" stroke="#767676" stroke-width="2" stroke-linecap="round" stroke-linejoin="round"/>
<path d="M39 33V24H45V33" stroke="#767676" stroke-width="2" stroke-linecap="round" stroke-linejoin="round"/>
</svg>
