<svg width="84" height="60" viewBox="0 0 84 60" fill="none" xmlns="http://www.w3.org/2000/svg">
<rect width="84" height="60" fill="white"/>
<path d="M29.4512 43.33H30.8412V46.45H29.4712V47.12H36.0812V46.45H34.7112V43.33H36.1012V42.67H29.4512V43.33ZM31.6612 43.33H33.8912V46.45H31.6612V43.33ZM36.8612 49.59V48.91H28.7312V49.59H36.8612ZM46.0704 49.63V48.96H42.4004V47.27H45.2704V46.61H39.7504V45.16H45.0604V42.43H38.9204V43.1H44.2604V44.5H38.9404V47.27H41.5704V48.96H37.9204V49.63H46.0704ZM53.6796 46.43H54.4996V41.77H53.6796V46.43ZM52.8196 45.78L52.7796 45.18C52.3496 45.23 51.9096 45.28 51.4596 45.31V43.02H52.3396V42.37H47.5296V43.02H48.4096V45.43C48.2196 45.44 48.0296 45.44 47.8396 45.44H47.2896L47.3696 46.12C48.9496 46.12 51.0296 46.05 52.8196 45.78ZM49.2096 45.41V43.02H50.6696V45.35C50.1796 45.38 49.6996 45.4 49.2096 45.41ZM54.8396 50.64V49.99H49.4796V49.01H54.4996V46.86H48.6396V47.5H53.6896V48.4H48.6696V50.64H54.8396Z" fill="#3C70BC"/>
<path d="M50 34V31C50 29.9391 49.5786 28.9217 48.8284 28.1716C48.0783 27.4214 47.0609 27 46 27H38C36.9391 27 35.9217 27.4214 35.1716 28.1716C34.4214 28.9217 34 29.9391 34 31V34" fill="#3C70BC"/>
<path d="M50 34V31C50 29.9391 49.5786 28.9217 48.8284 28.1716C48.0783 27.4214 47.0609 27 46 27H38C36.9391 27 35.9217 27.4214 35.1716 28.1716C34.4214 28.9217 34 29.9391 34 31V34" stroke="#3C70BC" stroke-width="2" stroke-linecap="round" stroke-linejoin="round"/>
<path d="M34 34H50" stroke="#3C70BC" stroke-width="2" stroke-linecap="round"/>
<path d="M42 23C44.2091 23 46 21.2091 46 19C46 16.7909 44.2091 15 42 15C39.7909 15 38 16.7909 38 19C38 21.2091 39.7909 23 42 23Z" fill="#3C70BC" stroke="#3C70BC" stroke-width="2" stroke-linecap="round" stroke-linejoin="round"/>
</svg>
