<svg width="84" height="60" viewBox="0 0 84 60" fill="none" xmlns="http://www.w3.org/2000/svg">
<rect width="84" height="60" fill="white"/>
<path d="M30.8412 46.45V43.33H29.4512V42.67H36.1012V43.33H34.7112V46.45H36.0812V47.12H29.4712V46.45H30.8412ZM33.8912 46.45V43.33H31.6612V46.45H33.8912ZM28.7312 48.91H36.8612V49.59H28.7312V48.91ZM42.4004 48.96H46.0704V49.63H37.9204V48.96H41.5704V47.27H38.9404V44.5H44.2604V43.1H38.9204V42.43H45.0604V45.16H39.7504V46.61H45.2704V47.27H42.4004V48.96ZM54.4996 41.77V46.43H53.6796V41.77H54.4996ZM52.7796 45.18L52.8196 45.78C52.3729 45.8467 51.9096 45.9033 51.4296 45.95C50.9563 45.99 50.4829 46.0233 50.0096 46.05C49.5429 46.0767 49.0829 46.0967 48.6296 46.11C48.1829 46.1167 47.7629 46.12 47.3696 46.12L47.2896 45.44H48.1296C48.2229 45.44 48.3163 45.4367 48.4096 45.43V43.02H47.5296V42.37H52.3396V43.02H51.4596V45.31C51.6863 45.2967 51.9096 45.28 52.1296 45.26C52.3496 45.2333 52.5663 45.2067 52.7796 45.18ZM49.2096 43.02V45.41C49.6896 45.4033 50.1763 45.3833 50.6696 45.35V43.02H49.2096ZM49.4796 49.99H54.8396V50.64H48.6696V48.4H53.6896V47.5H48.6396V46.86H54.4996V49.01H49.4796V49.99Z" fill="#767676"/>
<path d="M50 34V31C50 29.9391 49.5786 28.9217 48.8284 28.1716C48.0783 27.4214 47.0609 27 46 27H38C36.9391 27 35.9217 27.4214 35.1716 28.1716C34.4214 28.9217 34 29.9391 34 31V34" stroke="#767676" stroke-width="2" stroke-linecap="round" stroke-linejoin="round"/>
<path d="M34 34H50" stroke="#767676" stroke-width="2" stroke-linecap="round"/>
<path d="M42 23C44.2091 23 46 21.2091 46 19C46 16.7909 44.2091 15 42 15C39.7909 15 38 16.7909 38 19C38 21.2091 39.7909 23 42 23Z" stroke="#767676" stroke-width="2" stroke-linecap="round" stroke-linejoin="round"/>
</svg>
