<svg width="110" height="110" viewBox="0 0 110 110" fill="none" xmlns="http://www.w3.org/2000/svg">
<circle cx="55" cy="55" r="54.5" fill="#D9D9D9" stroke="#DBDBDB"/>
<path d="M54.5 68C65.2696 68 74 59.0457 74 48C74 36.9543 65.2696 28 54.5 28C43.7304 28 35 36.9543 35 48C35 59.0457 43.7304 68 54.5 68Z" fill="white"/>
<mask id="mask0_53_3942" style="mask-type:alpha" maskUnits="userSpaceOnUse" x="11" y="66" width="87" height="44">
<path d="M33.0328 67.8889L33.0525 67.8776L33.0711 67.8646C35.4418 66.2058 38.2384 66.7185 40.3173 67.8687C44.7208 71.5558 49.1644 73.425 54.5 73.425C59.8505 73.425 64.3039 71.5454 68.7195 67.8379C70.6945 66.1796 73.5035 66.1406 75.9855 67.2916C85.42 72.699 92.7223 81.7125 96.5917 92.5424C98.0655 96.6673 97.6413 100.934 96.0702 104.159C94.4941 107.394 91.8146 109.5 88.8106 109.5H20.1894C17.1835 109.5 14.5035 107.392 12.9278 104.231C11.3569 101.08 10.9381 96.9715 12.4041 93.1615L12.4042 93.1616L12.4083 93.1502C16.2802 82.3133 23.5894 73.2951 33.0328 67.8889Z" fill="white" stroke="#DBDBDB"/>
</mask>
<g mask="url(#mask0_53_3942)">
<path d="M109.5 55C109.5 85.0995 85.0995 109.5 55 109.5C24.9005 109.5 0.5 85.0995 0.5 55C0.5 24.9005 24.9005 0.5 55 0.5C85.0995 0.5 109.5 24.9005 109.5 55Z" fill="white" stroke="#DBDBDB"/>
</g>
</svg>
