<svg width="96" height="16" viewBox="0 0 96 16" fill="none" xmlns="http://www.w3.org/2000/svg">
<path d="M12.1902 1.42C12.6702 1.75333 12.9302 2.07333 12.9702 2.38C13.0236 2.67333 12.9102 3.03333 12.6302 3.46L8.41023 9.8V13.7C8.41023 13.9533 8.38357 14.2 8.33023 14.44C8.2769 14.6667 8.14357 14.8533 7.93023 15C7.73023 15.1467 7.3769 15.22 6.87023 15.22C6.3769 15.22 6.02357 15.1467 5.81023 15C5.5969 14.8533 5.46357 14.66 5.41023 14.42C5.37023 14.18 5.35023 13.9267 5.35023 13.66V9.8L1.11023 3.46C0.816901 3.03333 0.703568 2.66667 0.770234 2.36C0.836901 2.05333 1.10357 1.74 1.57023 1.42C1.9169 1.19333 2.21023 1.06 2.45023 1.02C2.69023 0.979999 2.91023 1.02667 3.11023 1.16C3.31023 1.29333 3.50357 1.51333 3.69023 1.82L6.83023 6.82L10.0502 1.82C10.2636 1.5 10.4636 1.28 10.6502 1.16C10.8502 1.02667 11.0702 0.979999 11.3102 1.02C11.5502 1.06 11.8436 1.19333 12.1902 1.42ZM20.5841 15.38C19.6241 15.38 18.7175 15.2 17.8641 14.84C17.0241 14.4667 16.2841 13.96 15.6441 13.32C15.0175 12.6667 14.5175 11.9133 14.1441 11.06C13.7841 10.2067 13.6041 9.28667 13.6041 8.3C13.6041 7.3 13.7775 6.36667 14.1241 5.5C14.4841 4.62 14.9708 3.84667 15.5841 3.18C16.2108 2.51333 16.9375 1.99333 17.7641 1.62C18.5908 1.24667 19.4775 1.06 20.4241 1.06C21.3841 1.06 22.2841 1.24667 23.1241 1.62C23.9775 1.98 24.7175 2.48667 25.3441 3.14C25.9708 3.79333 26.4641 4.55333 26.8241 5.42C27.1975 6.28667 27.3841 7.22667 27.3841 8.24C27.3841 9.21333 27.2041 10.1333 26.8441 11C26.4975 11.8533 26.0108 12.6133 25.3841 13.28C24.7575 13.9333 24.0308 14.4467 23.2041 14.82C22.3908 15.1933 21.5175 15.38 20.5841 15.38ZM20.4841 12.34C21.0175 12.34 21.5175 12.2333 21.9841 12.02C22.4508 11.8067 22.8575 11.52 23.2041 11.16C23.5641 10.7867 23.8375 10.3533 24.0241 9.86C24.2241 9.35333 24.3241 8.80667 24.3241 8.22C24.3241 7.66 24.2241 7.13333 24.0241 6.64C23.8241 6.13333 23.5441 5.69333 23.1841 5.32C22.8375 4.93333 22.4308 4.63333 21.9641 4.42C21.5108 4.20667 21.0175 4.1 20.4841 4.1C19.9641 4.1 19.4708 4.20667 19.0041 4.42C18.5508 4.63333 18.1441 4.93333 17.7841 5.32C17.4375 5.69333 17.1575 6.13333 16.9441 6.64C16.7441 7.13333 16.6441 7.66667 16.6441 8.24C16.6441 8.8 16.7441 9.33333 16.9441 9.84C17.1575 10.3333 17.4375 10.7667 17.7841 11.14C18.1441 11.5133 18.5508 11.8067 19.0041 12.02C19.4575 12.2333 19.9508 12.34 20.4841 12.34ZM34.5763 15.36C33.603 15.36 32.743 15.1733 31.9963 14.8C31.263 14.4133 30.6363 13.9067 30.1163 13.28C29.6097 12.64 29.2297 11.9267 28.9763 11.14C28.723 10.34 28.5963 9.52667 28.5963 8.7V2.72C28.5963 2.45333 28.6163 2.20667 28.6563 1.98C28.7097 1.74 28.843 1.54667 29.0563 1.4C29.2697 1.25333 29.623 1.18 30.1163 1.18C30.623 1.18 30.983 1.25333 31.1963 1.4C31.4097 1.54667 31.5363 1.74 31.5763 1.98C31.6297 2.20667 31.6563 2.46 31.6563 2.74V8.7C31.6563 9.28667 31.7497 9.85333 31.9363 10.4C32.1363 10.9467 32.4563 11.4 32.8963 11.76C33.3363 12.12 33.9163 12.3 34.6363 12.3C35.2497 12.3 35.7763 12.1533 36.2163 11.86C36.6563 11.5533 36.9963 11.1333 37.2363 10.6C37.4763 10.0533 37.5963 9.41333 37.5963 8.68V2.6C37.5963 2.36 37.623 2.13333 37.6763 1.92C37.7297 1.70667 37.863 1.53333 38.0763 1.4C38.2897 1.25333 38.643 1.18 39.1363 1.18C39.6297 1.18 39.9763 1.26 40.1763 1.42C40.3897 1.56667 40.5163 1.75333 40.5563 1.98C40.6097 2.20667 40.6363 2.46 40.6363 2.74V8.74C40.6363 9.58 40.503 10.3933 40.2363 11.18C39.983 11.9667 39.5963 12.6733 39.0763 13.3C38.5697 13.9267 37.9363 14.4267 37.1763 14.8C36.4297 15.1733 35.563 15.36 34.5763 15.36ZM43.9859 15.18C43.5059 15.18 43.1592 15.1067 42.9459 14.96C42.7325 14.8133 42.5992 14.62 42.5459 14.38C42.5059 14.14 42.4859 13.8933 42.4859 13.64V2.7C42.4859 2.44667 42.5059 2.20667 42.5459 1.98C42.5992 1.75333 42.7325 1.56667 42.9459 1.42C43.1592 1.27333 43.5125 1.2 44.0059 1.2H48.1659C48.7125 1.2 49.2725 1.3 49.8459 1.5C50.4192 1.7 50.9459 2.00667 51.4259 2.42C51.9059 2.83333 52.2925 3.34667 52.5859 3.96C52.8792 4.57333 53.0259 5.3 53.0259 6.14C53.0259 6.7 52.9392 7.24 52.7659 7.76C52.6059 8.28 52.3592 8.76 52.0259 9.2C51.6925 9.64 51.2792 10.02 50.7859 10.34C50.2925 10.6467 49.7259 10.8667 49.0859 11H45.5259V13.66C45.5259 13.9133 45.4992 14.16 45.4459 14.4C45.3925 14.6267 45.2592 14.8133 45.0459 14.96C44.8325 15.1067 44.4792 15.18 43.9859 15.18ZM52.4259 14.78C51.9325 15.14 51.5392 15.28 51.2459 15.2C50.9525 15.12 50.6459 14.86 50.3259 14.42L46.8059 9.38L50.2259 8.94L52.8059 12.64C53.0325 12.96 53.1725 13.2333 53.2259 13.46C53.2925 13.6867 53.2592 13.9 53.1259 14.1C53.0059 14.3 52.7725 14.5267 52.4259 14.78ZM45.5259 8H48.3059C48.4925 8 48.6859 7.96667 48.8859 7.9C49.0859 7.82 49.2659 7.70667 49.4259 7.56C49.5859 7.41333 49.7192 7.22 49.8259 6.98C49.9325 6.74 49.9859 6.45333 49.9859 6.12C49.9859 5.73333 49.9059 5.4 49.7459 5.12C49.5992 4.84 49.3859 4.62667 49.1059 4.48C48.8259 4.32 48.4992 4.24 48.1259 4.24H45.5259V8Z" fill="black"/>
<path d="M64.9724 1.18C65.1991 1.18 65.4058 1.2 65.5924 1.24C65.7791 1.28 65.9324 1.39333 66.0524 1.58C66.1858 1.75333 66.2524 2.06 66.2524 2.5C66.2524 2.91333 66.1858 3.21333 66.0524 3.4C65.9324 3.58667 65.7724 3.7 65.5724 3.74C65.3724 3.78 65.1591 3.8 64.9324 3.8H61.7124V13.7C61.7124 13.9533 61.6858 14.1933 61.6324 14.42C61.5924 14.6467 61.4658 14.8333 61.2524 14.98C61.0524 15.1133 60.7058 15.18 60.2124 15.18C59.7324 15.18 59.3858 15.1133 59.1724 14.98C58.9591 14.8333 58.8324 14.6467 58.7924 14.42C58.7524 14.18 58.7324 13.9333 58.7324 13.68V3.8H55.4724C55.2591 3.8 55.0524 3.78 54.8524 3.74C54.6524 3.68667 54.4924 3.57333 54.3724 3.4C54.2524 3.21333 54.1924 2.90667 54.1924 2.48C54.1924 2.05333 54.2524 1.75333 54.3724 1.58C54.4924 1.39333 54.6524 1.28 54.8524 1.24C55.0524 1.2 55.2591 1.18 55.4724 1.18H64.9724ZM69.1812 15.18C68.7012 15.18 68.3545 15.1067 68.1412 14.96C67.9278 14.8133 67.7945 14.62 67.7412 14.38C67.7012 14.14 67.6812 13.8933 67.6812 13.64V2.7C67.6812 2.44667 67.7012 2.20667 67.7412 1.98C67.7945 1.75333 67.9278 1.56667 68.1412 1.42C68.3545 1.27333 68.7078 1.2 69.2012 1.2H73.3612C73.9078 1.2 74.4678 1.3 75.0412 1.5C75.6145 1.7 76.1412 2.00667 76.6212 2.42C77.1012 2.83333 77.4878 3.34667 77.7812 3.96C78.0745 4.57333 78.2212 5.3 78.2212 6.14C78.2212 6.7 78.1345 7.24 77.9612 7.76C77.8012 8.28 77.5545 8.76 77.2212 9.2C76.8878 9.64 76.4745 10.02 75.9812 10.34C75.4878 10.6467 74.9212 10.8667 74.2812 11H70.7212V13.66C70.7212 13.9133 70.6945 14.16 70.6412 14.4C70.5878 14.6267 70.4545 14.8133 70.2412 14.96C70.0278 15.1067 69.6745 15.18 69.1812 15.18ZM77.6212 14.78C77.1278 15.14 76.7345 15.28 76.4412 15.2C76.1478 15.12 75.8412 14.86 75.5212 14.42L72.0012 9.38L75.4212 8.94L78.0012 12.64C78.2278 12.96 78.3678 13.2333 78.4212 13.46C78.4878 13.6867 78.4545 13.9 78.3212 14.1C78.2012 14.3 77.9678 14.5267 77.6212 14.78ZM70.7212 8H73.5012C73.6878 8 73.8812 7.96667 74.0812 7.9C74.2812 7.82 74.4612 7.70667 74.6212 7.56C74.7812 7.41333 74.9145 7.22 75.0212 6.98C75.1278 6.74 75.1812 6.45333 75.1812 6.12C75.1812 5.73333 75.1012 5.4 74.9412 5.12C74.7945 4.84 74.5812 4.62667 74.3012 4.48C74.0212 4.32 73.6945 4.24 73.3212 4.24H70.7212V8ZM81.2277 15.18C80.7477 15.18 80.4011 15.1133 80.1877 14.98C79.9744 14.8333 79.8411 14.64 79.7877 14.4C79.7477 14.16 79.7277 13.9133 79.7277 13.66V2.72C79.7277 2.45333 79.7477 2.20667 79.7877 1.98C79.8411 1.75333 79.9744 1.56667 80.1877 1.42C80.4011 1.27333 80.7544 1.2 81.2477 1.2C81.7544 1.2 82.1077 1.27333 82.3077 1.42C82.5211 1.56667 82.6477 1.75333 82.6877 1.98C82.7411 2.20667 82.7677 2.46 82.7677 2.74V13.68C82.7677 13.9333 82.7411 14.18 82.6877 14.42C82.6344 14.6467 82.5011 14.8333 82.2877 14.98C82.0877 15.1133 81.7344 15.18 81.2277 15.18ZM86.0162 15.18C85.5228 15.18 85.1695 15.1067 84.9562 14.96C84.7562 14.8133 84.6295 14.62 84.5762 14.38C84.5228 14.14 84.4962 13.8933 84.4962 13.64V2.72C84.4962 2.46667 84.5228 2.22667 84.5762 2C84.6295 1.76 84.7628 1.56667 84.9762 1.42C85.1895 1.27333 85.5428 1.2 86.0362 1.2H90.1362C90.6962 1.2 91.2562 1.3 91.8162 1.5C92.3895 1.7 92.9162 2.01333 93.3962 2.44C93.8895 2.85333 94.2828 3.36667 94.5762 3.98C94.8828 4.59333 95.0362 5.31333 95.0362 6.14C95.0362 6.95333 94.8828 7.66667 94.5762 8.28C94.2828 8.89333 93.8895 9.40667 93.3962 9.82C92.9162 10.22 92.3895 10.5267 91.8162 10.74C91.2428 10.94 90.6762 11.04 90.1162 11.04H87.5562V13.66C87.5562 13.9133 87.5295 14.16 87.4762 14.4C87.4228 14.6267 87.2895 14.8133 87.0762 14.96C86.8628 15.1067 86.5095 15.18 86.0162 15.18ZM87.5562 8H90.1362C90.4295 8 90.7162 7.94 90.9962 7.82C91.2895 7.68667 91.5295 7.48 91.7162 7.2C91.9162 6.92 92.0162 6.56 92.0162 6.12C92.0162 5.74667 91.9362 5.42 91.7762 5.14C91.6162 4.86 91.3895 4.64 91.0962 4.48C90.8162 4.32 90.4895 4.24 90.1162 4.24H87.5562V8Z" fill="#3C70BC"/>
</svg>
