<svg width="111" height="29" viewBox="0 0 111 29" fill="none" xmlns="http://www.w3.org/2000/svg">
<path d="M17.9445 1.63C18.6645 2.13 19.0545 2.61 19.1145 3.07C19.1945 3.51 19.0245 4.05 18.6045 4.69L12.2745 14.2V20.05C12.2745 20.43 12.2345 20.8 12.1545 21.16C12.0745 21.5 11.8745 21.78 11.5545 22C11.2545 22.22 10.7245 22.33 9.96453 22.33C9.22453 22.33 8.69453 22.22 8.37453 22C8.05453 21.78 7.85453 21.49 7.77453 21.13C7.71453 20.77 7.68453 20.39 7.68453 19.99V14.2L1.32453 4.69C0.884531 4.05 0.714531 3.5 0.814531 3.04C0.914531 2.58 1.31453 2.11 2.01453 1.63C2.53453 1.29 2.97453 1.09 3.33453 1.03C3.69453 0.969999 4.02453 1.04 4.32453 1.24C4.62453 1.44 4.91453 1.77 5.19453 2.23L9.90453 9.73L14.7345 2.23C15.0545 1.75 15.3545 1.42 15.6345 1.24C15.9345 1.04 16.2645 0.969999 16.6245 1.03C16.9845 1.09 17.4245 1.29 17.9445 1.63ZM24.3519 22.51C23.4119 22.51 22.4719 22.33 21.5319 21.97C20.6119 21.59 19.7719 21.06 19.0119 20.38C18.2519 19.7 17.6519 18.89 17.2119 17.95C16.7719 16.99 16.5519 15.93 16.5519 14.77C16.5519 13.69 16.7519 12.69 17.1519 11.77C17.5519 10.83 18.1119 10 18.8319 9.28C19.5519 8.56 20.3719 8 21.2919 7.6C22.2319 7.18 23.2319 6.97 24.2919 6.97C25.7319 6.97 27.0319 7.32 28.1919 8.02C29.3719 8.7 30.3119 9.63 31.0119 10.81C31.7119 11.99 32.0619 13.3 32.0619 14.74C32.0619 15.96 31.8319 17.05 31.3719 18.01C30.9319 18.95 30.3319 19.76 29.5719 20.44C28.8319 21.12 28.0019 21.64 27.0819 22C26.1819 22.34 25.2719 22.51 24.3519 22.51ZM24.2919 17.98C24.7719 17.98 25.2619 17.86 25.7619 17.62C26.2619 17.38 26.6819 17.02 27.0219 16.54C27.3619 16.06 27.5319 15.45 27.5319 14.71C27.5319 14.07 27.3919 13.51 27.1119 13.03C26.8319 12.55 26.4419 12.18 25.9419 11.92C25.4619 11.64 24.9019 11.5 24.2619 11.5C23.6619 11.5 23.1219 11.64 22.6419 11.92C22.1819 12.2 21.8019 12.59 21.5019 13.09C21.2219 13.57 21.0819 14.12 21.0819 14.74C21.0819 15.46 21.2419 16.07 21.5619 16.57C21.9019 17.05 22.3219 17.41 22.8219 17.65C23.3219 17.87 23.8119 17.98 24.2919 17.98ZM40.3597 22.24C39.4397 22.24 38.5697 22.06 37.7497 21.7C36.9497 21.34 36.2497 20.84 35.6497 20.2C35.0497 19.54 34.5797 18.77 34.2397 17.89C33.9197 16.99 33.7597 16.01 33.7597 14.95V9.52C33.7597 9.12 33.7997 8.75 33.8797 8.41C33.9597 8.07 34.1497 7.79 34.4497 7.57C34.7697 7.35 35.2997 7.24 36.0397 7.24C36.7797 7.24 37.2997 7.35 37.5997 7.57C37.9197 7.79 38.1097 8.08 38.1697 8.44C38.2497 8.78 38.2897 9.15 38.2897 9.55V14.95C38.2897 15.53 38.3897 16.04 38.5897 16.48C38.8097 16.9 39.1197 17.22 39.5197 17.44C39.9397 17.66 40.4297 17.77 40.9897 17.77C41.5697 17.77 42.0597 17.66 42.4597 17.44C42.8797 17.2 43.1997 16.87 43.4197 16.45C43.6597 16.03 43.7797 15.53 43.7797 14.95V9.49C43.7797 9.09 43.8197 8.72 43.8997 8.38C43.9797 8.04 44.1697 7.77 44.4697 7.57C44.7897 7.35 45.3197 7.24 46.0597 7.24C46.7997 7.24 47.3197 7.35 47.6197 7.57C47.9397 7.79 48.1297 8.08 48.1897 8.44C48.2697 8.78 48.3097 9.14 48.3097 9.52V20.08C48.3097 20.46 48.2697 20.82 48.1897 21.16C48.1297 21.48 47.9397 21.74 47.6197 21.94C47.2997 22.14 46.7797 22.24 46.0597 22.24C45.5197 22.24 45.0997 22.18 44.7997 22.06C44.4997 21.94 44.2797 21.79 44.1397 21.61C43.9997 21.43 43.9097 21.24 43.8697 21.04C43.8497 20.84 43.8397 20.66 43.8397 20.5L44.2297 20.17C44.1697 20.25 44.0397 20.4 43.8397 20.62C43.6397 20.84 43.3697 21.08 43.0297 21.34C42.7097 21.58 42.3297 21.79 41.8897 21.97C41.4497 22.15 40.9397 22.24 40.3597 22.24ZM52.9468 22.27C52.2068 22.27 51.6768 22.17 51.3568 21.97C51.0568 21.75 50.8668 21.46 50.7868 21.1C50.7268 20.74 50.6968 20.37 50.6968 19.99V9.52C50.6968 9.12 50.7368 8.75 50.8168 8.41C50.8968 8.07 51.0868 7.8 51.3868 7.6C51.7068 7.38 52.2368 7.27 52.9768 7.27C53.6768 7.27 54.1768 7.37 54.4768 7.57C54.7968 7.75 54.9968 7.97 55.0768 8.23C55.1568 8.47 55.1968 8.68 55.1968 8.86L54.8368 9.04C54.8768 8.96 54.9768 8.82 55.1368 8.62C55.3168 8.4 55.5568 8.18 55.8568 7.96C56.1568 7.72 56.5168 7.52 56.9368 7.36C57.3768 7.2 57.8768 7.12 58.4368 7.12C58.6568 7.12 58.8968 7.14 59.1568 7.18C59.4368 7.2 59.7168 7.26 59.9968 7.36C60.2968 7.44 60.5668 7.56 60.8068 7.72C61.0468 7.86 61.2368 8.04 61.3768 8.26C61.5368 8.48 61.6168 8.75 61.6168 9.07C61.6168 9.89 61.4268 10.59 61.0468 11.17C60.6668 11.73 60.1868 12.01 59.6068 12.01C59.2668 12.01 59.0268 11.98 58.8868 11.92C58.7468 11.86 58.6268 11.8 58.5268 11.74C58.4468 11.68 58.3468 11.63 58.2268 11.59C58.1068 11.53 57.8868 11.5 57.5668 11.5C57.2668 11.5 56.9768 11.54 56.6968 11.62C56.4368 11.7 56.1868 11.83 55.9468 12.01C55.7268 12.17 55.5468 12.38 55.4068 12.64C55.2868 12.88 55.2268 13.15 55.2268 13.45V20.05C55.2268 20.43 55.1868 20.8 55.1068 21.16C55.0468 21.5 54.8568 21.77 54.5368 21.97C54.2168 22.17 53.6868 22.27 52.9468 22.27ZM76.112 1.27C76.452 1.27 76.762 1.3 77.042 1.36C77.322 1.42 77.552 1.59 77.732 1.87C77.932 2.13 78.032 2.59 78.032 3.25C78.032 3.87 77.932 4.32 77.732 4.6C77.552 4.88 77.312 5.05 77.012 5.11C76.712 5.17 76.392 5.2 76.052 5.2H71.222V20.05C71.222 20.43 71.182 20.79 71.102 21.13C71.042 21.47 70.852 21.75 70.532 21.97C70.232 22.17 69.712 22.27 68.972 22.27C68.252 22.27 67.732 22.17 67.412 21.97C67.092 21.75 66.902 21.47 66.842 21.13C66.782 20.77 66.752 20.4 66.752 20.02V5.2H61.862C61.542 5.2 61.232 5.17 60.932 5.11C60.632 5.03 60.392 4.86 60.212 4.6C60.032 4.32 59.942 3.86 59.942 3.22C59.942 2.58 60.032 2.13 60.212 1.87C60.392 1.59 60.632 1.42 60.932 1.36C61.232 1.3 61.542 1.27 61.862 1.27H76.112ZM78.5816 22.27C77.8416 22.27 77.3116 22.17 76.9916 21.97C76.6916 21.75 76.5016 21.46 76.4216 21.1C76.3616 20.74 76.3316 20.37 76.3316 19.99V9.52C76.3316 9.12 76.3716 8.75 76.4516 8.41C76.5316 8.07 76.7216 7.8 77.0216 7.6C77.3416 7.38 77.8716 7.27 78.6116 7.27C79.3116 7.27 79.8116 7.37 80.1116 7.57C80.4316 7.75 80.6316 7.97 80.7116 8.23C80.7916 8.47 80.8316 8.68 80.8316 8.86L80.4716 9.04C80.5116 8.96 80.6116 8.82 80.7716 8.62C80.9516 8.4 81.1916 8.18 81.4916 7.96C81.7916 7.72 82.1516 7.52 82.5716 7.36C83.0116 7.2 83.5116 7.12 84.0716 7.12C84.2916 7.12 84.5316 7.14 84.7916 7.18C85.0716 7.2 85.3516 7.26 85.6316 7.36C85.9316 7.44 86.2016 7.56 86.4416 7.72C86.6816 7.86 86.8716 8.04 87.0116 8.26C87.1716 8.48 87.2516 8.75 87.2516 9.07C87.2516 9.89 87.0616 10.59 86.6816 11.17C86.3016 11.73 85.8216 12.01 85.2416 12.01C84.9016 12.01 84.6616 11.98 84.5216 11.92C84.3816 11.86 84.2616 11.8 84.1616 11.74C84.0816 11.68 83.9816 11.63 83.8616 11.59C83.7416 11.53 83.5216 11.5 83.2016 11.5C82.9016 11.5 82.6116 11.54 82.3316 11.62C82.0716 11.7 81.8216 11.83 81.5816 12.01C81.3616 12.17 81.1816 12.38 81.0416 12.64C80.9216 12.88 80.8616 13.15 80.8616 13.45V20.05C80.8616 20.43 80.8216 20.8 80.7416 21.16C80.6816 21.5 80.4916 21.77 80.1716 21.97C79.8516 22.17 79.3216 22.27 78.5816 22.27ZM91.4171 22.27C90.6771 22.27 90.1471 22.17 89.8271 21.97C89.5271 21.75 89.3371 21.47 89.2571 21.13C89.1971 20.77 89.1671 20.4 89.1671 20.02V9.55C89.1671 9.15 89.1971 8.78 89.2571 8.44C89.3371 8.1 89.5371 7.83 89.8571 7.63C90.1771 7.41 90.7071 7.3 91.4471 7.3C92.1671 7.3 92.6771 7.41 92.9771 7.63C93.2971 7.85 93.4871 8.13 93.5471 8.47C93.6271 8.81 93.6671 9.19 93.6671 9.61V20.05C93.6671 20.43 93.6271 20.8 93.5471 21.16C93.4871 21.5 93.2971 21.77 92.9771 21.97C92.6771 22.17 92.1571 22.27 91.4171 22.27ZM91.4171 5.11C90.6571 5.11 90.1171 5 89.7971 4.78C89.4771 4.56 89.2771 4.27 89.1971 3.91C89.1371 3.55 89.1071 3.17 89.1071 2.77C89.1071 2.35 89.1471 1.97 89.2271 1.63C89.3071 1.27 89.5071 0.989999 89.8271 0.789999C90.1471 0.569999 90.6871 0.459998 91.4471 0.459998C92.1871 0.459998 92.7171 0.569999 93.0371 0.789999C93.3571 1.01 93.5471 1.3 93.6071 1.66C93.6871 2.02 93.7271 2.4 93.7271 2.8C93.7271 3.2 93.6871 3.58 93.6071 3.94C93.5471 4.3 93.3571 4.59 93.0371 4.81C92.7171 5.01 92.1771 5.11 91.4171 5.11ZM104.143 22C103.163 22 102.293 21.81 101.533 21.43C100.793 21.03 100.173 20.5 99.6727 19.84C99.1927 19.16 98.8227 18.38 98.5627 17.5C98.3227 16.62 98.2127 15.67 98.2327 14.65C98.2327 13.67 98.3627 12.74 98.6227 11.86C98.8827 10.96 99.2527 10.17 99.7327 9.49C100.233 8.79 100.843 8.25 101.563 7.87C102.303 7.47 103.163 7.27 104.143 7.27C105.023 7.27 105.873 7.47 106.693 7.87C107.533 8.27 108.273 8.82 108.913 9.52C109.553 10.2 110.053 10.99 110.413 11.89C110.793 12.79 110.983 13.74 110.983 14.74C110.983 15.74 110.793 16.69 110.413 17.59C110.053 18.47 109.553 19.24 108.913 19.9C108.273 20.56 107.543 21.08 106.723 21.46C105.903 21.82 105.043 22 104.143 22ZM98.3527 28.48C97.6327 28.48 97.1127 28.37 96.7927 28.15C96.4927 27.95 96.3027 27.68 96.2227 27.34C96.1627 27.02 96.1327 26.67 96.1327 26.29V9.52C96.1327 9.12 96.1627 8.76 96.2227 8.44C96.2827 8.1 96.4627 7.82 96.7627 7.6C97.0827 7.38 97.6027 7.27 98.3227 7.27C98.9427 7.27 99.4327 7.36 99.7927 7.54C100.173 7.72 100.443 8 100.603 8.38V26.26C100.623 26.64 100.593 27 100.513 27.34C100.433 27.68 100.233 27.95 99.9127 28.15C99.6127 28.37 99.0927 28.48 98.3527 28.48ZM103.513 17.77C104.073 17.77 104.573 17.64 105.013 17.38C105.453 17.1 105.803 16.73 106.063 16.27C106.343 15.81 106.483 15.3 106.483 14.74C106.483 14.16 106.353 13.65 106.093 13.21C105.833 12.75 105.483 12.39 105.043 12.13C104.603 11.87 104.103 11.74 103.543 11.74C103.003 11.74 102.503 11.88 102.043 12.16C101.603 12.42 101.253 12.78 100.993 13.24C100.753 13.68 100.633 14.18 100.633 14.74C100.633 15.3 100.763 15.81 101.023 16.27C101.283 16.73 101.633 17.1 102.073 17.38C102.513 17.64 102.993 17.77 103.513 17.77Z" fill="black"/>
</svg>
